<?xml version="1.0" encoding="UTF-8" standalone="no"?>
<!-- Full SVG you provided (saved here as logo-large.svg). Keep this file as-is so the large logo renders crisply. -->
<svg
   width="210mm"
   height="297mm"
   viewBox="0 0 210 297"
   version="1.1"
   id="svg1"
   xml:space="preserve"
   inkscape:version="1.4 (86a8ad7, 2024-10-11)"
   sodipodi:docname="Nettisivu all avg.svg"
   xmlns:inkscape="http://www.inkscape.org/namespaces/inkscape"
   xmlns:sodipodi="http://sodipodi.sourceforge.net/DTD/sodipodi-0.dtd"
   xmlns:xlink="http://www.w3.org/1999/xlink"
   xmlns="http://www.w3.org/2000/svg"
   xmlns:svg="http://www.w3.org/2000/svg"><sodipodi:namedview
     id="namedview1"
     pagecolor="#ffffff"
     bordercolor="#000000"
     borderopacity="0.25"
     inkscape:showpageshadow="2"
     inkscape:pageopacity="0.0"
     inkscape:pagecheckerboard="0"
     inkscape:deskcolor="#d1d1d1"
     inkscape:document-units="mm"
     inkscape:zoom="0.10803268"
     inkscape:cx="-462.8229"
     inkscape:cy="-3304.5555"
     inkscape:window-width="1500"
     inkscape:window-height="930"
     inkscape:window-x="-6"
     inkscape:window-y="-6"
     inkscape:window-maximized="1"
     inkscape:current-layer="g32"
     showguides="true"
     inkscape:export-bgcolor="#00000000" /><defs
     id="defs1"><rect
       x="-502.16285"
       y="-754.40133"
       width="1163.9996"
       height="687.29201"
       id="rect5" /><g
       id="s"><g
         id="c"><path
           id="t"
           d="M0,0v1h0.5z"
           transform="translate(0,-1)rotate(18)" /><use
           xlink:href="#t"
           transform="scale(-1,1)"
           id="use1-5" /></g><g
         id="a"><use
           xlink:href="#c"
           transform="rotate(72)"
           id="use2-5" /><use
           xlink:href="#c"
           transform="rotate(144)"
           id="use3-1" /></g><use
         xlink:href="#a"
         transform="scale(-1,1)"
         id="use4-7" /></g><marker
       id="DistanceX"
       orient="auto"
       refX="0.0"
       refY="0.0"
       style="overflow:visible"><path
         d="M 3,-3 L -3,3 M 0,-5 L  0,5"
         style="stroke:#000000; stroke-width:0.5"
         id="path1-27" /></marker><pattern
       id="Hatch"
       patternUnits="userSpaceOnUse"
       width="8"
       height="8"
       x="0"
       y="0"><path
         d="M8 4 l-4,4"
         stroke="#000000"
         stroke-width="0.25"
         linecap="square"
         id="path2-6" /><path
         d="M6 2 l-4,4"
         stroke="#000000"
         stroke-width="0.25"
         linecap="square"
         id="path3" /><path
         d="M4 0 l-4,4"
         stroke="#000000"
         stroke-width="0.25"
         linecap="square"
         id="path4" /></pattern><symbol
       id="*Model_Space" /><symbol
       id="*Paper_Space" /><symbol
       id="*Paper_Space0" /><marker
       id="DistanceX-8"
       orient="auto"
       refX="0.0"
       refY="0.0"
       style="overflow:visible"><path
         d="M 3,-3 L -3,3 M 0,-5 L  0,5"
         style="stroke:#000000; stroke-width:0.5"
         id="path1-2" /></marker><pattern
       id="Hatch-4"
       patternUnits="userSpaceOnUse"
       width="8"
       height="8"
       x="0"
       y="0"><path
         d="M8 4 l-4,4"
         stroke="#000000"
         stroke-width="0.25"
         linecap="square"
         id="path2-5" /><path
         d="M6 2 l-4,4"
         stroke="#000000"
         stroke-width="0.25"
         linecap="square"
         id="path3-5" /><path
         d="M4 0 l-4,4"
         stroke="#000000"
         stroke-width="0.25"
         linecap="square"
         id="path4-1" /></pattern><symbol
       id="*Model_Space-7" /><symbol
       id="*Paper_Space-1" /><symbol
       id="*Paper_Space0-1" /><marker
       id="DistanceX-82"
       orient="auto"
       refX="0.0"
       refY="0.0"
       style="overflow:visible"><path
         d="M 3,-3 L -3,3 M 0,-5 L  0,5"
         style="stroke:#000000; stroke-width:0.5"
         id="path1-4" /></marker><pattern
       id="Hatch-5"
       patternUnits="userSpaceOnUse"
       width="8"
       height="8"
       x="0"
       y="0"><path
         d="M8 4 l-4,4"
         stroke="#000000"
         stroke-width="0.25"
         linecap="square"
         id="path2-51" /><path
         d="M6 2 l-4,4"
         stroke="#000000"
         stroke-width="0.25"
         linecap="square"
         id="path3-7" /><path
         d="M4 0 l-4,4"
         stroke="#000000"
         stroke-width="0.25"
         linecap="square"
         id="path4-11" /></pattern><symbol
       id="*Model_Space-5" /><symbol
       id="*Paper_Space-2" /><symbol
       id="*Paper_Space0-7" /><marker
       id="DistanceX-2"
       orient="auto"
       refX="0.0"
       refY="0.0"
       style="overflow:visible"><path
         d="M 3,-3 L -3,3 M 0,-5 L  0,5"
         style="stroke:#000000; stroke-width:0.5"
         id="path1-21" /></marker><pattern
       id="Hatch-6"
       patternUnits="userSpaceOnUse"
       width="8"
       height="8"
       x="0"
       y="0"><path
         d="M8 4 l-4,4"
         stroke="#000000"
         stroke-width="0.25"
         linecap="square"
         id="path2-8" /><path
         d="M6 2 l-4,4"
         stroke="#000000"
         stroke-width="0.25"
         linecap="square"
         id="path3-57" /><path
         d="M4 0 l-4,4"
         stroke="#000000"
         stroke-width="0.25"
         linecap="square"
         id="path4-6" /></pattern><symbol
       id="*Model_Space-1" /><symbol
       id="*Paper_Space-8" /><symbol
       id="*Paper_Space0-9" /></defs><g
     inkscape:label="Taso 1"
     inkscape:groupmode="layer"
     id="layer1"><g
       id="g32"
       transform="translate(-72.73468)"><rect
         style="fill:#464646;fill-opacity:1;fill-rule:nonzero;stroke:#ede8de;stroke-width:0.264583;stroke-opacity:1"
         id="rect7"
         width="1600"
         height="1000"
         x="-685.94202"
         y="-1333.5908" /><g
         id="g3"
         transform="matrix(0.7005175,0,0,0.7005175,525.71847,-1274.0541)"
         inkscape:export-filename="..\Nettisivut\nato.png"
         inkscape:export-xdpi="96"
         inkscape:export-ydpi="96"><g
           id="g1"
           transform="matrix(0.96587338,0,0,0.96587338,-24.41655,17.002782)"><rect
             y="-5.4932002e-06"
             width="258.82001"
             height="129.41"
             fill="#ffffff"
             style="paint-order:markers fill stroke"
             id="rect1"
             x="0" /><path
             d="m 195.09,65.684 v 7.1177 h -1.9411 V 65.684 h -63.736 v 63.734 h 129.41 V 65.684 Z"
             fill-rule="evenodd"
             stroke-width="1.2256"
             id="path1" /><g
             transform="rotate(180,-164.05,-11.537)"
             id="g2"><use
               transform="translate(-457.5,-152.49)"
               width="100%"
               height="100%"
               xlink:href="#g"
               id="use1" /><use
               transform="translate(-457.5,-152.49)"
               width="100%"
               height="100%"
               xlink:href="#h"
               id="use2" /></g><path
             id="g"
             d="m 64.705,64.708 -7.8776,8.5549 7.019,32.612 -9.8262,-30.773 -33.461,-10.39 h -4.383 v 0.97098 H 2e-4 v 63.732 l 63.732,0.004 v -16.178 h 0.97151 z m -34.133,6.3071 1.5994,0.49765 c 2.6749,12.894 12.801,23.056 25.669,25.765 l 0.51469,1.6071 c -14.093,-2.6105 -25.198,-13.748 -27.784,-27.868 z"
             fill="#0b89c6"
             stroke-width="1.2256" /><path
             id="h"
             d="M 0.014722,0.0072544 V 63.742254 h 16.177 v 0.96842 h 48.529 l -8.5409,-7.8869 -32.562,7.0299 30.731,-9.8411 10.373,-33.509 v -4.3201 h -0.97151 V 0.0064744 Z m 58.411,30.5189996 -0.49659,1.6009 c -12.881,2.6765 -23.03,12.82 -25.735,25.707 l -1.6025,0.51315 c 2.609,-14.114 13.729,-25.236 27.834,-27.821 z"
             fill="#004489"
             stroke-width="1.2256" /><path
             d="m 129.42,0.01 v 63.73 h 63.736 v -7.1116 h 1.9411 V 63.74 h 63.736 V 0.01 Z"
             fill-rule="evenodd"
             stroke-width="1.2256"
             id="path2" /><path
             id="i"
             d="m 216.23,26.19 c -0.60054,0 -0.73842,-0.4688 -1.0479,-1.8231 -0.62812,-2.7392 -1.5825,-2.7392 -5.1306,-2.7378 l -3.1927,0.011 c 0.0245,1.4416 0.0153,4.0031 0.005,6.7163 -0.0214,5.8247 -0.049,13.036 0.21295,14.185 0.10417,0.45501 1.1352,0.82269 1.6592,0.91921 l 0.98201,0.12562 c 1.0172,0.12097 1.4799,0.17465 1.7602,0.60514 0.239,0.36768 0.18691,0.75068 -0.13175,0.99734 -0.18997,0.14707 -0.56684,0.14707 -2.5968,0.0766 -1.0862,-0.0368 -2.4375,-0.0843 -3.9924,-0.0934 -1.9303,0 -3.1851,0.0597 -4.1027,0.10417 -1.0525,0.0521 -1.6117,0.0797 -2.1448,-0.0306 -0.20222,-0.0811 -0.33091,-0.23439 -0.37993,-0.43662 -0.0568,-0.23286 0.002,-0.48105 0.16545,-0.68327 0.28189,-0.3447 0.54999,-0.37381 1.2638,-0.45041 0.32785,-0.0352 0.69707,-0.0766 1.1659,-0.14401 0.62506,-0.1119 1.9211,-0.60974 1.984,-0.96823 0.13788,-0.89162 0.18385,-12.925 0.20529,-18.709 l 0.009,-2.2 -4.8381,0.0153 c -1.3512,0.0139 -2.2169,0.50096 -3.303,1.8568 -0.24819,0.37381 -0.94832,1.3222 -1.4432,1.9395 -0.28955,0.36002 -0.7752,0.71698 -1.1888,0.54386 -0.1532,-0.0643 -0.40138,-0.25124 -0.34163,-0.79357 l 1.6837,-6.7071 c 0.0566,-0.26197 0.26963,-0.70778 0.71698,-0.70778 0.50249,0 0.58982,0.16239 0.96056,0.85332 l 0.15933,0.29875 c 0.31253,0.50556 0.55765,0.90388 2.7255,0.85945 l 16.397,0.069 c 0.075,0 0.22214,-0.0414 0.24818,-0.12409 0.63885,-1.2808 1.0203,-1.9977 1.509,-1.9977 0.35695,0.001 0.78438,0.19609 0.78438,1.1138 l -0.005,6.6305 c -0.0382,0.42897 -0.32019,0.68634 -0.75834,0.68634"
             fill="#ffffff"
             fill-rule="evenodd"
             stroke-width="1.2256" /><path
             id="j"
             d="m 167.82,45.66 c -0.18537,0.20682 -0.21295,0.22061 -0.24206,0.22214 l -0.93759,0.0827 c -3.6292,-3.5634 -11.689,-12.38 -16.504,-17.649 l -3.1697,-3.4593 c 0.005,3.2295 0.0261,15.824 0.12409,18.07 0.0843,0.40752 0.81043,0.53774 1.198,0.60821 0.50403,0.0719 0.87937,0.11337 1.1521,0.14401 0.766,0.0827 1.0341,0.1119 1.316,0.45654 0.3064,0.37993 0.22061,0.76753 0.011,0.96669 -0.20988,0.19763 -0.68327,0.1915 -2.2934,0.13482 -0.67255,-0.0245 -1.6899,-0.0613 -2.6978,-0.0537 -0.89316,0.006 -1.7786,0.0368 -2.4894,0.0613 -1.6239,0.0566 -1.9257,0.0566 -2.0896,-0.0537 -0.12869,-0.0858 -0.21755,-0.22673 -0.24359,-0.39066 -0.0215,-0.14554 -0.005,-0.37074 0.20222,-0.62505 0.27883,-0.34317 0.54387,-0.37228 1.2624,-0.45041 0.32173,-0.0353 0.69707,-0.0766 1.1659,-0.14401 0.56224,-0.10259 1.2164,-0.43356 1.2486,-0.63272 0.18538,-1.1122 0.12563,-14.118 0.0873,-19.031 -0.0505,-1.3038 -0.13022,-1.6867 -0.20989,-1.9073 -0.40598,-1.1398 -2.2504,-1.2638 -3.038,-1.3161 -0.19303,-0.0139 -0.30793,-0.0215 -0.3876,-0.0398 l -0.24972,-1.1812 5.627,-0.33858 c 0.47799,0.26198 1.4048,0.95138 2.2566,1.8476 l 16.766,18.459 c -0.13635,-4.5286 -0.57757,-14.775 -0.71238,-17.864 -0.0858,-0.49024 -0.83648,-0.62659 -1.195,-0.69094 -0.56225,-0.0811 -0.9667,-0.12562 -1.2072,-0.15166 -0.71698,-0.0766 -0.98508,-0.10577 -1.267,-0.45195 -0.3064,-0.3784 -0.22061,-0.766 -0.011,-0.96516 0.21141,-0.19916 0.6848,-0.1915 2.3041,-0.13328 0.76447,0.0261 1.7173,0.0598 2.6855,0.0521 0.89776,-0.007 1.7832,-0.0382 2.4941,-0.0613 1.6209,-0.0566 1.9227,-0.0582 2.0897,0.0551 0.12869,0.0874 0.21601,0.2298 0.24052,0.39219 0.0215,0.14248 0.002,0.36615 -0.20069,0.62046 -0.28189,0.34623 -0.54999,0.37534 -1.267,0.45194 -0.311,0.0337 -0.68327,0.075 -1.1643,0.14248 -0.69094,0.12562 -1.2501,0.455 -1.244,0.5699 0.006,0.11803 0.57297,19.129 0.56225,20.768 l 0.0566,3.4072 -0.0292,0.0782 z"
             fill="#ffffff"
             fill-rule="evenodd"
             stroke-width="1.2256" /><path
             id="l"
             d="m 231.15,20.15 c -2.73,0 -4.9836,0.86864 -6.6979,2.583 -2.5156,2.5156 -3.4118,6.4084 -3.4118,9.2119 0,2.75 0.96056,6.92 3.666,9.6256 1.6837,1.6837 3.7687,2.537 6.2001,2.537 3.519,0 6.1878,-1.1459 7.9327,-3.4057 1.5796,-2.0468 2.3807,-4.9514 2.3807,-8.6329 0,-3.974 -1.0693,-7.0595 -3.1804,-9.1706 -2.3914,-2.3914 -5.3436,-2.7484 -6.8894,-2.7484 m 12.085,19.781 c -0.15779,0.24359 -3.9572,5.9442 -12.124,5.9442 -4.1962,0 -7.7718,-1.3574 -10.339,-3.925 -2.514,-2.5125 -3.954,-6.0943 -3.954,-9.8279 0,-3.5773 1.29,-6.8955 3.6324,-9.3467 2.6779,-2.8005 6.5616,-4.2804 11.233,-4.2804 3.9511,0 7.5666,1.4416 10.185,4.0582 2.4726,2.4726 3.8347,5.7956 3.8347,9.356 0,2.1785 -0.1915,4.593 -2.4665,8.0216"
             fill="#ffffff"
             fill-rule="evenodd"
             stroke-width="1.2256" /><use
             transform="translate(-23.328,64.813)"
             width="100%"
             height="100%"
             xlink:href="#i"
             id="use3" /><use
             transform="translate(75.965,64.816)"
             width="100%"
             height="100%"
             xlink:href="#j"
             id="use4" /><use
             transform="translate(20.112,64.811)"
             width="100%"
             height="100%"
             xlink:href="#k"
             id="use5" /><use
             transform="translate(-75.927,64.813)"
             width="100%"
             height="100%"
             xlink:href="#l"
             id="use6" /></g><text
         xml:space="preserve"
         transform="matrix(0.26458333,0,0,0.26458333,-63.676718,652.70788)"
         id="text4"
         style="font-style:normal;font-variant:normal;font-weight:300;font-stretch:normal;font-size:58.6667px;line-height:0.1;font-family:Montserrat;-inkscape-font-specification:'Montserrat Light';text-align:start;writing-mode:lr-tb;direction:ltr;white-space:pre;shape-inside:url(#rect5);display:inline;fill:#ffffff;stroke:#ffffff;stroke-opacity:1" /><g
         inkscape:label="0"
         id="g5"
         transform="matrix(0.61702807,0,0,0.61702807,-1212.6601,-768.7223)"
         inkscape:export-filename="..\Nettisivut\logo.png"
         inkscape:export-xdpi="96"
         inkscape:export-ydpi="96"><path
           style="fill:#000000;stroke:#000000;stroke-width:1.15706;stroke-opacity:1"
           d="m 1522.5715,207.86001 c -11.3299,-0.93225 -33.1529,-3.8535 -41.1165,-5.50388 l -4.0497,-0.83928 -0.2949,-114.212014 -0.2949,-114.21201 h -47.2993 -47.2993 l -22.0196,-26.90158 -22.0197,-26.90158 69.0354,-0.57853 69.0353,-0.57852 0.3327,-10.70278 0.3327,-10.702776 h -78.589 -78.5889 l -22.0194,-26.90158 -22.0194,-26.90158 100.5649,-0.29562 100.5649,-0.29562 v -10.40716 -10.40716 h -109.2961 -109.2962 l -22.0402,-26.90158 -22.0402,-26.90158 155.056,-0.29346 155.0561,-0.29346 v -49.17073 c 0,-27.04391 -0.3009,-49.17075 -0.6687,-49.17075 -0.3677,0 -7.9684,2.10913 -16.8904,4.68695 -8.922,2.57782 -16.6301,4.53035 -17.1291,4.33896 -0.9531,-0.36553 60.2537,-97.17124 61.5861,-97.4055 1.0644,-0.18717 62.5169,96.54323 61.7933,97.26687 -0.4619,0.46188 -15.5865,-3.49347 -32.2847,-8.44303 -1.9061,-0.56499 -2.0248,2.28791 -2.0248,48.65271 v 49.25291 h 23.7185 23.7186 l 61.3262,122.64806 c 33.7294,67.456436 61.8464,122.648066 62.4822,122.648066 0.7627,0 1.156,-41.73055 1.156,-122.648066 v -122.64806 h 31.8191 31.819 V -65.921634 101.0201 l -6.6531,6.4155 c -13.1909,12.71989 -31.6554,27.38836 -48.7179,38.70224 -7.6956,5.1028 -8.646,5.45733 -9.9284,3.70354 -0.78,-1.06669 -28.4503,-54.028054 -61.4897,-117.691894 -33.0394,-63.66386 -60.461,-115.75246 -60.9368,-115.75246 -0.4759,0 -0.9975,64.16925 -1.1591,142.59832 l -0.2938,142.598334 -7.5209,1.38481 c -8.8971,1.63822 -33.6854,4.57901 -47.1501,5.59369 l -9.5457,0.71937 V -63.613504 -336.51854 l -5.0829,-1.35946 c -3.9684,-1.06139 -6.1882,-1.03943 -10.1242,0.10016 l -5.0414,1.45961 -0.2917,272.725366 -0.2917,272.725374 -3.1795,-0.16191 c -1.7487,-0.089 -8.3678,-0.58881 -14.7091,-1.11059 z"
           id="path6"
           inkscape:export-filename="IN LOGO MAIN 1200dpi.png"
           inkscape:export-xdpi="1200"
           inkscape:export-ydpi="1200" /><text
           xml:space="preserve"
           style="font-style:normal;font-variant:normal;font-weight:normal;font-stretch:normal;font-size:192px;line-height:0.1;font-family:GothicE;-inkscape-font-specification:GothicE;text-align:start;writing-mode:lr-tb;direction:ltr;text-anchor:start;fill:#000000;stroke:#000000;stroke-opacity:1"
           x="-569.27216"
           y="960.35748"
           id="text6"><tspan
             sodipodi:role="line"
             id="tspan6-1"
             x="-569.27216"
             y="960.35748" /></text><text
           xml:space="preserve"
           style="font-style:normal;font-variant:normal;font-weight:normal;font-stretch:normal;font-size:192px;line-height:0.1;font-family:Montserrat;-inkscape-font-specification:Montserrat;text-align:start;writing-mode:lr-tb;direction:ltr;text-anchor:start;fill:#000000;stroke:#000000"
           x="111.27017"
           y="32.726521"
           id="text1"><tspan
             sodipodi:role="line"
             id="tspan1"
             x="111.27017"
             y="32.726521" /></text><text
           xml:space="preserve"
           style="font-style:normal;font-variant:normal;font-weight:normal;font-stretch:normal;font-size:220.151px;line-height:0.1;font-family:Montserrat;-inkscape-font-specification:Montserrat;text-align:start;writing-mode:lr-tb;direction:ltr;text-anchor:start;fill:#000000;stroke:#000000;stroke-width:1.65101;stroke-opacity:1"
           x="1816.5385"
           y="-78.569283"
           id="text2-0-4"><tspan
             sodipodi:role="line"
             x="1816.5385"
             y="-78.569283"
             style="font-style:normal;font-variant:normal;font-weight:600;font-stretch:normal;font-size:220.151px;line-height:0.1;font-family:Montserrat;-inkscape-font-specification:'Montserrat Semi-Bold';fill:#000000;stroke:#000000;stroke-width:1.65101;stroke-opacity:1"
             id="tspan14">INDUSTRIA </tspan><tspan
             sodipodi:role="line"
             x="1816.5385"
             y="-56.554184"
             style="font-style:normal;font-variant:normal;font-weight:600;font-stretch:normal;font-size:220.151px;line-height:0.1;font-family:Montserrat;-inkscape-font-specification:'Montserrat Semi-Bold';fill:#000000;stroke:#000000;stroke-width:1.65101;stroke-opacity:1"
             id="tspan15" /><tspan
             sodipodi:role="line"
             x="1816.5385"
             y="-34.539082"
             style="font-style:normal;font-variant:normal;font-weight:600;font-stretch:normal;font-size:220.151px;line-height:0.1;font-family:Montserrat;-inkscape-font-specification:'Montserrat Semi-Bold';fill:#000000;stroke:#000000;stroke-width:1.65101;stroke-opacity:1"
             id="tspan16" /><tspan
             sodipodi:role="line"
             x="1816.5385"
             y="-12.523981"
             style="font-style:normal;font-variant:normal;font-weight:600;font-stretch:normal;font-size:220.151px;line-height:0.1;font-family:Montserrat;-inkscape-font-specification:'Montserrat Semi-Bold';fill:#000000;stroke:#000000;stroke-width:1.65101;stroke-opacity:1"
             id="tspan17" /><tspan
             sodipodi:role="line"
             x="1816.5385"
             y="9.4911194"
             style="font-style:normal;font-variant:normal;font-weight:600;font-stretch:normal;font-size:220.151px;line-height:0.1;font-family:Montserrat;-inkscape-font-specification:'Montserrat Semi-Bold';fill:#000000;stroke:#000000;stroke-width:1.65101;stroke-opacity:1"
             id="tspan18" /><tspan
             sodipodi:role="line"
             x="1816.5385"
             y="31.50622"
             style="font-style:normal;font-variant:normal;font-weight:600;font-stretch:normal;font-size:220.151px;line-height:0.1;font-family:Montserrat;-inkscape-font-specification:'Montserrat Semi-Bold';fill:#000000;stroke:#000000;stroke-width:1.65101;stroke-opacity:1"
             id="tspan19" /><tspan
             sodipodi:role="line"
             x="1816.5385"
             y="53.52132"
             style="font-style:normal;font-variant:normal;font-weight:600;font-stretch:normal;font-size:220.151px;line-height:0.1;font-family:Montserrat;-inkscape-font-specification:'Montserrat Semi-Bold';fill:#000000;stroke:#000000;stroke-width:1.65101;stroke-opacity:1"
             id="tspan20" /><tspan
             sodipodi:role="line"
             x="1816.5385"
             y="75.536423"
             style="font-style:normal;font-variant:normal;font-weight:600;font-stretch:normal;font-size:220.151px;line-height:0.1;font-family:Montserrat;-inkscape-font-specification:'Montserrat Semi-Bold';fill:#000000;stroke:#000000;stroke-width:1.65101;stroke-opacity:1"
             id="tspan21" /><tspan
             sodipodi:role="line"
             x="1816.5385"
             y="97.551521"
             style="font-style:normal;font-variant:normal;font-weight:600;font-stretch:normal;font-size:220.151px;line-height:0.1;font-family:Montserrat;-inkscape-font-specification:'Montserrat Semi-Bold';fill:#000000;stroke:#000000;stroke-width:1.65101;stroke-opacity:1"
             id="tspan24">NORDICA</tspan></text></g><g
         id="g140"
         style="fill:#000000;fill-opacity:1;stroke:#000000;stroke-opacity:1"
         transform="matrix(0.3740303,0,0,0.3740303,-614.46539,-1257.9007)"
         inkscape:export-filename="..\Nettisivut\signet.png"
         inkscape:export-xdpi="96"
         inkscape:export-ydpi="96"><g
           inkscape:label="0"
           id="g14"
           transform="matrix(0.26458333,0,0,0.26458333,-9842.2561,10540.772)"
           style="fill:#000000;fill-opacity:1;stroke:#000000;stroke-opacity:1"><path
             d="m 37587.612,-39022.869 a 377.95276,377.95276 0 0 0 18.897,0"
             style="fill:#000000;fill-opacity:1;stroke:#000000;stroke-opacity:1"
             id="path5" /><path
             style="fill:#000000;fill-opacity:1;stroke:#000000;stroke-opacity:1"
             d="m 37606.5,-39778.5 v -0.2"
             id="path6-7" /><path
             style="fill:#000000;fill-opacity:1;stroke:#000000;stroke-opacity:1"
             d="m 37587.6,-39778.5 v -0.2"
             id="path7" /><path
             style="fill:#000000;fill-opacity:1;stroke:#000000;stroke-opacity:1"
             d="m 37975,-39410.2 h -0.1"
             id="path8" /><path
             style="fill:#000000;fill-opacity:1;stroke:#000000;stroke-opacity:1"
             d="m 37219.2,-39410.2 h -0.1"
             id="path9" /><path
             style="fill:#000000;fill-opacity:1;stroke:#000000;stroke-opacity:1"
             d="m 37975,-39391.3 h -0.1"
             id="path10" /><path
             style="fill:#000000;fill-opacity:1;stroke:#000000;stroke-opacity:1"
             d="m 37219.2,-39391.3 h -0.1"
             id="path11" /><path
             d="m 37587.612,-39022.751 v -387.402 -56.693 -101.237 l 9.449,-2.7 9.448,2.7 v 101.237 56.693 387.402"
             style="fill:#000000;fill-opacity:1;stroke:#000000;stroke-opacity:1"
             id="path12" /><path
             d="m 37672.651,-39030.387 v -285.278 l 122.835,236.637 a 377.95276,377.95276 0 0 1 -122.835,48.641 z"
             style="fill:#000000;fill-opacity:1;stroke:#000000;stroke-opacity:1"
             id="path13" /><path
             d="m 37380.597,-39315.665 h 140.873 -140.873 l 46.385,56.693 h 94.488 v 228.585 a 377.95276,377.95276 0 1 1 340.157,-100.405 v -336.054 h -66.141 v 245.67 l -122.835,-245.67 h -47.244 v -95.838 l 37.795,10.799 -66.141,-103.937 -66.142,103.937 37.795,-10.799 v 95.838 h -311.811 l 46.385,56.693 h 218.182 v 18.898 h -202.72 l 46.385,56.693 h 156.335 v 18.897"
             style="fill:#000000;fill-opacity:1;stroke:#000000;stroke-opacity:1"
             id="path14" /></g><path...
</svg>
